P2
# 0 17 criado por mim mesmo...
21 31
255
0
0
0
0
0
0
0
0
0
0
0
0
0
0
0
0
0
0
0
0
0
0
255
255
255
255
255
255
255
255
255
255
255
255
255
0
255
255
255
255
255
0
0
255
0
0
0
0
0
0
0
0
0
0
0
0
0
255
0
0
0
255
0
0
255
255
255
255
255
255
255
255
255
255
255
255
255
255
255
0
255
255
255
0
0
255
0
0
0
0
0
0
0
0
0
0
0
0
0
0
0
255
0
255
0
0
255
0
255
255
255
255
255
255
255
0
255
255
255
0
255
0
255
0
255
0
0
255
0
255
0
0
0
255
0
255
0
255
0
255
0
255
0
255
0
0
0
0
255
0
255
0
255
0
255
0
255
0
255
0
255
255
255
0
255
255
255
0
0
255
0
255
0
255
0
255
0
255
0
255
0
0
0
0
0
0
0
255
0
0
255
0
255
255
255
0
255
0
255
0
255
255
255
255
255
255
255
0
255
0
0
255
0
0
0
0
0
255
0
255
0
0
0
0
0
255
0
0
0
255
0
0
255
0
255
255
255
255
255
0
255
255
255
255
255
255
255
0
255
255
255
0
0
255
0
255
0
0
0
0
0
255
0
0
0
0
0
0
0
255
0
255
0
0
255
0
255
255
255
0
255
0
255
0
255
255
255
255
255
255
255
0
255
0
0
255
0
0
0
255
0
255
0
255
0
255
0
0
0
0
0
0
0
0
0
0
255
255
255
255
255
0
255
0
255
0
255
255
255
255
255
255
255
255
255
0
0
0
0
0
0
0
0
255
0
255
0
0
0
0
0
0
0
0
0
255
0
255
255
255
255
0
255
255
255
0
255
0
255
255
255
0
255
255
255
0
255
0
0
255
0
255
0
255
0
255
0
255
0
255
0
255
0
255
0
255
0
255
0
0
255
0
255
255
255
0
255
0
255
0
255
0
255
0
255
0
255
255
255
0
0
255
0
0
0
0
0
0
0
255
0
255
0
255
0
255
0
0
0
255
0
0
255
255
255
255
255
255
255
255
255
255
255
0
255
0
255
0
255
255
255
0
0
255
0
0
0
0
0
0
0
0
0
0
0
0
0
255
0
255
0
0
0
0
255
255
255
255
255
255
255
255
255
0
255
255
255
255
255
0
255
255
255
0
0
0
0
0
0
0
0
0
0
0
0
255
0
0
0
0
0
0
0
255
0
0
255
255
255
255
255
255
255
255
255
255
255
0
255
255
255
255
255
0
255
0
0
255
0
0
0
0
0
0
0
0
0
0
0
255
0
0
0
0
0
255
0
0
255
0
255
255
255
255
255
255
255
0
255
255
255
255
255
255
255
255
255
0
0
255
0
255
0
255
0
0
0
0
0
255
0
0
0
0
0
0
0
0
0
0
255
0
255
0
255
255
255
255
255
255
255
255
255
255
255
255
255
255
255
0
0
255
0
0
0
0
0
0
0
0
0
0
0
0
0
0
0
0
0
0
0
