P2
# 69 0 criado por mim mesmo...
101 61
255
0
0
0
0
0
0
0
0
0
0
0
0
0
0
0
0
0
0
0
0
0
0
0
0
0
0
0
0
0
0
0
0
0
0
0
0
0
0
0
0
0
0
0
0
0
0
0
0
0
0
0
0
0
0
0
0
0
0
0
0
0
0
0
0
0
0
0
0
0
255
0
0
0
0
0
0
0
0
0
0
0
0
0
0
0
255
0
0
0
0
0
0
0
0
0
0
0
0
0
0
0
0
255
255
255
255
255
255
255
0
255
255
255
255
255
255
255
255
255
255
255
255
255
0
255
255
255
255
255
0
255
255
255
255
255
255
255
255
255
255
255
255
255
255
255
0
255
255
255
255
255
255
255
255
255
255
255
255
255
255
255
255
255
255
255
255
255
255
255
255
255
0
255
255
255
255
255
255
255
255
255
0
255
255
255
255
255
0
255
255
255
255
255
0
255
255
255
0
255
255
255
0
0
255
0
0
0
0
0
255
0
0
0
0
0
0
0
0
0
0
0
255
0
255
0
255
0
255
0
255
0
0
0
0
0
255
0
0
0
255
0
0
0
0
0
255
0
0
0
0
0
255
0
0
0
0
0
0
0
255
0
0
0
255
0
0
0
0
0
0
0
0
0
255
0
0
0
0
0
0
0
255
0
255
0
0
0
0
0
255
0
0
0
255
0
255
0
255
0
0
0
255
0
0
255
0
255
255
255
0
255
255
255
255
255
255
255
255
255
255
255
255
255
0
255
0
255
0
255
0
255
255
255
255
255
0
255
0
255
255
255
0
255
255
255
0
255
0
255
255
255
0
255
0
255
255
255
255
255
0
255
0
255
255
255
0
255
255
255
255
255
255
255
0
255
0
255
255
255
255
255
255
255
0
255
255
255
0
255
255
255
0
255
0
255
0
255
0
255
255
255
255
255
0
0
255
0
255
0
0
0
0
0
0
0
0
0
0
0
0
0
0
0
0
0
255
0
0
0
255
0
0
0
0
0
255
0
0
0
255
0
0
0
255
0
255
0
255
0
255
0
255
0
255
0
0
0
255
0
255
0
255
0
0
0
0
0
255
0
0
0
0
0
255
0
255
0
255
0
0
0
0
0
0
0
0
0
255
0
0
0
255
0
255
0
255
0
255
0
0
0
0
0
0
0
0
255
0
255
255
255
255
255
255
255
255
255
0
255
255
255
255
255
255
255
0
255
255
255
0
255
0
255
255
255
0
255
255
255
255
255
0
255
255
255
0
255
0
255
255
255
0
255
0
255
0
255
255
255
0
255
0
255
255
255
255
255
0
255
0
255
255
255
0
255
255
255
0
255
255
255
255
255
255
255
255
255
0
255
255
255
255
255
0
255
255
255
0
255
255
255
255
255
255
255
0
0
255
0
255
0
0
0
0
0
255
0
255
0
255
0
0
0
0
0
255
0
0
0
255
0
255
0
255
0
255
0
0
0
0
0
0
0
255
0
0
0
0
0
0
0
0
0
255
0
255
0
255
0
0
0
0
0
0
0
0
0
255
0
255
0
0
0
255
0
0
0
0
0
0
0
0
0
0
0
255
0
255
0
0
0
0
0
0
0
255
0
0
0
0
0
0
0
0
0
255
0
0
255
0
255
0
255
0
255
255
255
0
255
0
255
0
255
0
255
255
255
255
255
0
255
255
255
0
255
0
255
255
255
255
255
0
255
0
255
255
255
255
255
255
255
255
255
0
255
0
255
0
255
0
255
255
255
255
255
255
255
0
255
0
255
255
255
255
255
255
255
0
255
255
255
255
255
0
255
0
255
0
255
0
255
255
255
255
255
255
255
0
255
255
255
0
255
255
255
255
255
0
0
255
0
255
0
255
0
255
0
0
0
255
0
255
0
255
0
255
0
0
0
255
0
0
0
0
0
0
0
255
0
0
0
255
0
255
0
255
0
0
0
0
0
0
0
255
0
255
0
255
0
255
0
255
0
0
0
0
0
255
0
255
0
0
0
0
0
0
0
255
0
0
0
255
0
255
0
255
0
255
0
255
0
255
0
0
0
0
0
0
0
255
0
255
0
255
0
0
0
255
0
0
255
0
255
255
255
0
255
0
255
255
255
0
255
0
255
0
255
0
255
255
255
255
255
255
255
255
255
255
255
0
255
255
255
255
255
0
255
255
255
0
255
255
255
0
255
0
255
0
255
255
255
0
255
0
255
255
255
0
255
0
255
255
255
0
255
255
255
0
255
255
255
255
255
0
255
255
255
0
255
0
255
0
255
0
255
255
255
255
255
255
255
0
255
0
255
0
255
0
255
0
0
255
0
255
0
0
0
255
0
255
0
0
0
255
0
255
0
255
0
0
0
0
0
0
0
0
0
0
0
0
0
0
0
0
0
0
0
0
0
255
0
255
0
255
0
255
0
255
0
0
0
255
0
255
0
255
0
255
0
255
0
255
0
0
0
255
0
255
0
0
0
0
0
255
0
0
0
0
0
255
0
255
0
255
0
0
0
255
0
255
0
0
0
255
0
255
0
255
0
255
0
0
255
0
255
0
255
255
255
0
255
0
255
255
255
0
255
0
255
255
255
255
255
255
255
255
255
255
255
255
255
255
255
255
255
255
255
255
255
0
255
0
255
0
255
0
255
0
255
0
255
255
255
0
255
0
255
0
255
0
255
0
255
255
255
255
255
0
255
255
255
0
255
0
255
0
255
255
255
255
255
0
255
0
255
255
255
0
255
0
255
0
255
255
255
255
255
0
255
0
255
0
0
255
0
0
0
255
0
0
0
255
0
255
0
0
0
255
0
0
0
0
0
0
0
0
0
0
0
0
0
0
0
0
0
0
0
0
0
255
0
255
0
255
0
255
0
255
0
255
0
0
0
0
0
255
0
255
0
0
0
255
0
255
0
0
0
0
0
255
0
255
0
255
0
255
0
255
0
0
0
0
0
255
0
0
0
255
0
0
0
255
0
0
0
0
0
0
0
255
0
255
0
0
255
0
255
255
255
0
255
0
255
0
255
0
255
255
255
0
255
255
255
255
255
0
255
255
255
255
255
255
255
255
255
0
255
255
255
0
255
255
255
0
255
0
255
255
255
0
255
255
255
255
255
255
255
0
255
255
255
0
255
0
255
0
255
255
255
255
255
0
255
0
255
0
255
0
255
0
255
255
255
255
255
255
255
0
255
255
255
0
255
255
255
255
255
0
255
255
255
255
255
0
0
255
0
255
0
0
0
255
0
255
0
255
0
255
0
255
0
255
0
0
0
255
0
255
0
0
0
0
0
255
0
255
0
0
0
255
0
0
0
0
0
255
0
0
0
0
0
0
0
0
0
0
0
0
0
255
0
255
0
255
0
255
0
255
0
0
0
0
0
255
0
255
0
255
0
255
0
0
0
0
0
0
0
0
0
0
0
255
0
255
0
0
0
255
0
255
0
0
0
0
0
0
255
0
255
0
255
255
255
255
255
0
255
255
255
0
255
0
255
0
255
255
255
0
255
0
255
0
255
255
255
0
255
255
255
255
255
255
255
255
255
0
255
255
255
255
255
255
255
255
255
255
255
255
255
0
255
0
255
255
255
0
255
0
255
0
255
255
255
255
255
255
255
0
255
0
255
255
255
255
255
255
255
255
255
255
255
0
255
0
255
0
255
0
255
0
255
255
255
255
255
0
0
255
0
255
0
0
0
0
0
0
0
0
0
0
0
255
0
255
0
0
0
0
0
255
0
255
0
255
0
0
0
0
0
0
0
0
0
0
0
255
0
0
0
0
0
0
0
0
0
255
0
0
0
255
0
255
0
0
0
0
0
0
0
255
0
0
0
0
0
0
0
0
0
255
0
0
0
0
0
0
0
0
0
255
0
255
0
255
0
255
0
255
0
255
0
0
0
0
0
255
0
0
255
0
255
255
255
255
255
0
255
255
255
255
255
0
255
0
255
255
255
255
255
255
255
255
255
0
255
0
255
255
255
255
255
0
255
255
255
0
255
0
255
255
255
255
255
0
255
255
255
0
255
255
255
0
255
255
255
0
255
255
255
255
255
0
255
255
255
255
255
255
255
0
255
0
255
255
255
0
255
255
255
0
255
0
255
0
255
0
255
255
255
0
255
0
255
255
255
0
255
0
0
255
0
255
0
0
0
255
0
255
0
0
0
255
0
255
0
255
0
0
0
0
0
0
0
0
0
255
0
255
0
0
0
255
0
0
0
255
0
255
0
255
0
0
0
255
0
255
0
0
0
255
0
0
0
0
0
255
0
255
0
0
0
0
0
255
0
0
0
0
0
255
0
255
0
255
0
255
0
255
0
255
0
0
0
255
0
255
0
0
0
0
0
255
0
255
0
0
0
255
0
0
255
0
255
255
255
0
255
0
255
255
255
0
255
255
255
0
255
255
255
255
255
0
255
255
255
255
255
0
255
0
255
255
255
255
255
255
255
0
255
0
255
0
255
255
255
0
255
0
255
0
255
255
255
0
255
0
255
0
255
255
255
255
255
0
255
0
255
255
255
0
255
255
255
0
255
0
255
0
255
0
255
0
255
255
255
0
255
0
255
255
255
255
255
0
255
255
255
255
255
0
0
255
0
0
0
0
0
255
0
0
0
255
0
0
0
0
0
0
0
0
0
255
0
255
0
0
0
0
0
255
0
0
0
0
0
0
0
255
0
255
0
0
0
255
0
0
0
255
0
255
0
0
0
255
0
255
0
255
0
0
0
0
0
255
0
255
0
255
0
255
0
0
0
0
0
255
0
0
0
255
0
255
0
255
0
0
0
255
0
255
0
0
0
0
0
0
0
0
0
255
0
0
255
255
255
255
255
0
255
255
255
0
255
0
255
255
255
255
255
255
255
255
255
0
255
0
255
255
255
255
255
0
255
255
255
0
255
255
255
0
255
255
255
255
255
0
255
255
255
0
255
255
255
0
255
0
255
0
255
0
255
255
255
0
255
0
255
0
255
0
255
255
255
255
255
255
255
255
255
0
255
0
255
0
255
255
255
0
255
0
255
255
255
255
255
255
255
255
255
0
255
0
0
255
0
0
0
255
0
0
0
255
0
255
0
0
0
0
0
0
0
0
0
0
0
255
0
255
0
0
0
0
0
255
0
255
0
0
0
255
0
0
0
255
0
0
0
255
0
0
0
255
0
0
0
255
0
255
0
255
0
255
0
255
0
255
0
255
0
255
0
0
0
0
0
0
0
0
0
255
0
255
0
255
0
255
0
255
0
255
0
255
0
0
0
0
0
0
0
255
0
255
0
0
255
0
255
0
255
255
255
0
255
0
255
255
255
255
255
255
255
0
255
255
255
0
255
0
255
255
255
255
255
255
255
0
255
255
255
0
255
0
255
255
255
0
255
255
255
0
255
255
255
255
255
255
255
0
255
0
255
0
255
0
255
0
255
0
255
0
255
255
255
255
255
255
255
255
255
0
255
0
255
0
255
0
255
0
255
0
255
0
255
0
255
255
255
255
255
255
255
0
255
0
0
255
0
255
0
0
0
255
0
255
0
0
0
0
0
0
0
255
0
255
0
255
0
255
0
255
0
0
0
0
0
0
0
0
0
255
0
0
0
255
0
0
0
255
0
0
0
0
0
0
0
0
0
255
0
255
0
255
0
255
0
255
0
255
0
255
0
0
0
0
0
0
0
0
0
0
0
255
0
255
0
255
0
0
0
255
0
255
0
255
0
255
0
0
0
0
0
0
0
255
0
0
255
0
255
255
255
0
255
0
255
255
255
255
255
255
255
0
255
0
255
0
255
255
255
0
255
0
255
255
255
255
255
255
255
0
255
255
255
255
255
0
255
0
255
255
255
255
255
255
255
255
255
0
255
255
255
0
255
0
255
0
255
0
255
255
255
255
255
255
255
255
255
255
255
255
255
255
255
0
255
0
255
0
255
255
255
0
255
0
255
0
255
0
255
255
255
255
255
0
255
0
0
255
0
0
0
255
0
255
0
255
0
0
0
0
0
0
0
255
0
255
0
0
0
0
0
0
0
255
0
0
0
0
0
255
0
255
0
0
0
0
0
255
0
0
0
0
0
0
0
0
0
255
0
0
0
0
0
255
0
255
0
255
0
255
0
0
0
0
0
0
0
0
0
0
0
0
0
255
0
255
0
255
0
255
0
0
0
255
0
255
0
255
0
255
0
0
0
0
0
255
0
0
255
255
255
255
255
0
255
0
255
255
255
255
255
255
255
255
255
0
255
255
255
255
255
255
255
255
255
0
255
255
255
0
255
0
255
255
255
255
255
255
255
0
255
255
255
255
255
255
255
0
255
255
255
255
255
0
255
255
255
0
255
0
255
0
255
255
255
255
255
0
255
255
255
255
255
255
255
0
255
0
255
0
255
255
255
0
255
0
255
0
255
0
255
255
255
255
255
0
255
0
0
0
0
0
0
0
0
255
0
255
0
0
0
0
0
0
0
0
0
255
0
0
0
0
0
0
0
0
0
255
0
0
0
255
0
255
0
0
0
0
0
255
0
255
0
0
0
255
0
0
0
0
0
0
0
255
0
0
0
0
0
255
0
0
0
255
0
0
0
255
0
255
0
0
0
0
0
0
0
255
0
255
0
255
0
255
0
255
0
255
0
255
0
255
0
0
0
255
0
255
0
0
255
255
255
255
255
255
255
0
255
0
255
255
255
255
255
255
255
0
255
0
255
255
255
0
255
255
255
255
255
0
255
255
255
0
255
0
255
255
255
0
255
0
255
0
255
255
255
0
255
255
255
255
255
255
255
255
255
0
255
0
255
255
255
255
255
0
255
0
255
0
255
0
255
0
255
255
255
255
255
0
255
0
255
0
255
0
255
0
255
0
255
0
255
255
255
0
255
0
255
0
0
255
0
0
0
0
0
0
0
255
0
0
0
255
0
0
0
255
0
255
0
255
0
255
0
0
0
255
0
255
0
255
0
0
0
255
0
255
0
255
0
255
0
0
0
255
0
0
0
255
0
0
0
0
0
0
0
255
0
255
0
0
0
0
0
0
0
255
0
255
0
255
0
255
0
255
0
0
0
0
0
255
0
0
0
255
0
255
0
0
0
255
0
255
0
0
0
255
0
255
0
0
255
255
255
255
255
0
255
255
255
255
255
0
255
0
255
0
255
0
255
0
255
0
255
0
255
255
255
0
255
0
255
0
255
0
255
0
255
0
255
0
255
0
255
255
255
0
255
255
255
0
255
0
255
255
255
0
255
255
255
0
255
255
255
255
255
255
255
0
255
0
255
255
255
0
255
0
255
255
255
0
255
255
255
255
255
0
255
255
255
255
255
0
255
0
255
255
255
0
255
0
0
255
0
0
0
255
0
0
0
0
0
255
0
255
0
255
0
255
0
255
0
255
0
255
0
255
0
0
0
255
0
255
0
255
0
255
0
255
0
255
0
255
0
255
0
0
0
255
0
0
0
255
0
255
0
255
0
0
0
255
0
255
0
0
0
0
0
0
0
255
0
255
0
0
0
255
0
255
0
0
0
255
0
0
0
0
0
0
0
0
0
0
0
0
0
255
0
255
0
255
0
0
255
0
255
255
255
0
255
255
255
0
255
255
255
0
255
255
255
0
255
0
255
0
255
0
255
0
255
255
255
0
255
0
255
255
255
0
255
0
255
0
255
255
255
0
255
255
255
0
255
255
255
0
255
0
255
255
255
0
255
0
255
255
255
255
255
255
255
0
255
0
255
0
255
255
255
0
255
255
255
255
255
0
255
255
255
0
255
255
255
255
255
255
255
255
255
0
255
0
255
0
0
255
0
255
0
0
0
255
0
255
0
0
0
0
0
255
0
0
0
255
0
255
0
255
0
255
0
0
0
255
0
255
0
255
0
0
0
255
0
255
0
0
0
255
0
255
0
0
0
255
0
255
0
255
0
255
0
255
0
255
0
0
0
0
0
0
0
255
0
255
0
0
0
255
0
0
0
0
0
0
0
0
0
255
0
255
0
255
0
255
0
0
0
0
0
0
0
0
0
255
0
0
255
0
255
255
255
255
255
0
255
0
255
255
255
0
255
0
255
255
255
255
255
0
255
0
255
255
255
0
255
0
255
0
255
0
255
255
255
0
255
255
255
0
255
0
255
0
255
255
255
0
255
255
255
0
255
0
255
0
255
255
255
0
255
255
255
255
255
0
255
255
255
255
255
0
255
255
255
255
255
255
255
255
255
0
255
255
255
0
255
255
255
255
255
255
255
255
255
0
255
0
0
255
0
0
0
0
0
0
0
255
0
255
0
0
0
255
0
0
0
0
0
0
0
255
0
255
0
255
0
255
0
255
0
0
0
255
0
0
0
0
0
255
0
255
0
255
0
255
0
0
0
0
0
0
0
255
0
0
0
0
0
255
0
255
0
0
0
0
0
0
0
0
0
255
0
255
0
0
0
0
0
0
0
0
0
0
0
0
0
0
0
255
0
0
0
0
0
255
0
255
0
0
255
0
255
0
255
255
255
0
255
0
255
255
255
0
255
0
255
255
255
255
255
0
255
0
255
0
255
0
255
0
255
255
255
0
255
0
255
255
255
0
255
0
255
0
255
0
255
255
255
255
255
255
255
0
255
255
255
255
255
255
255
255
255
0
255
255
255
0
255
255
255
0
255
0
255
0
255
255
255
255
255
255
255
255
255
0
255
255
255
0
255
0
255
255
255
0
255
0
255
0
0
255
0
255
0
255
0
255
0
255
0
0
0
255
0
255
0
255
0
0
0
255
0
255
0
0
0
255
0
0
0
0
0
255
0
255
0
255
0
0
0
255
0
0
0
255
0
0
0
0
0
255
0
0
0
0
0
0
0
0
0
0
0
0
0
255
0
255
0
255
0
255
0
255
0
255
0
255
0
0
0
0
0
255
0
255
0
255
0
255
0
255
0
255
0
0
0
255
0
255
0
0
255
0
255
0
255
0
255
0
255
255
255
0
255
0
255
0
255
0
255
255
255
0
255
255
255
255
255
0
255
255
255
255
255
0
255
0
255
255
255
255
255
0
255
255
255
0
255
255
255
255
255
0
255
255
255
255
255
255
255
255
255
255
255
255
255
0
255
255
255
0
255
0
255
0
255
0
255
0
255
255
255
255
255
0
255
0
255
0
255
0
255
255
255
0
255
255
255
0
255
0
0
255
0
255
0
255
0
255
0
255
0
255
0
255
0
255
0
255
0
0
0
255
0
255
0
0
0
0
0
255
0
0
0
0
0
255
0
0
0
0
0
255
0
255
0
0
0
255
0
0
0
0
0
255
0
0
0
0
0
0
0
0
0
0
0
0
0
0
0
0
0
255
0
255
0
255
0
0
0
255
0
0
0
0
0
255
0
255
0
255
0
0
0
0
0
255
0
255
0
255
0
0
255
0
255
0
255
0
255
0
255
0
255
0
255
0
255
0
255
255
255
0
255
0
255
0
255
255
255
255
255
0
255
255
255
0
255
255
255
255
255
0
255
255
255
0
255
0
255
0
255
0
255
255
255
0
255
255
255
0
255
255
255
255
255
255
255
255
255
255
255
0
255
0
255
0
255
0
255
255
255
0
255
255
255
0
255
0
255
0
255
255
255
255
255
255
255
0
255
0
255
0
0
255
0
255
0
255
0
255
0
255
0
255
0
255
0
255
0
0
0
255
0
255
0
255
0
255
0
0
0
0
0
255
0
255
0
0
0
0
0
255
0
0
0
0
0
255
0
255
0
255
0
255
0
0
0
255
0
255
0
0
0
0
0
0
0
0
0
0
0
255
0
255
0
255
0
255
0
255
0
0
0
255
0
255
0
255
0
255
0
0
0
0
0
0
0
0
0
255
0
255
0
0
255
0
255
0
255
0
255
0
255
0
255
0
255
0
255
0
255
255
255
0
255
0
255
0
255
255
255
255
255
255
255
0
255
255
255
255
255
0
255
0
255
255
255
255
255
255
255
255
255
0
255
255
255
255
255
0
255
0
255
255
255
255
255
255
255
255
255
255
255
0
255
255
255
0
255
0
255
0
255
255
255
0
255
0
255
0
255
0
255
255
255
255
255
255
255
0
255
0
255
0
0
255
0
255
0
255
0
255
0
0
0
255
0
255
0
255
0
255
0
0
0
255
0
255
0
0
0
0
0
0
0
0
0
0
0
0
0
255
0
255
0
0
0
0
0
0
0
0
0
0
0
0
0
0
0
0
0
255
0
255
0
0
0
0
0
0
0
0
0
255
0
0
0
0
0
255
0
255
0
255
0
0
0
0
0
255
0
255
0
255
0
0
0
0
0
0
0
255
0
255
0
0
255
255
255
0
255
0
255
255
255
255
255
0
255
0
255
255
255
0
255
255
255
0
255
0
255
255
255
0
255
255
255
255
255
255
255
0
255
0
255
255
255
255
255
255
255
255
255
255
255
255
255
255
255
255
255
0
255
0
255
0
255
255
255
255
255
255
255
0
255
255
255
255
255
0
255
0
255
0
255
255
255
255
255
255
255
0
255
0
255
255
255
255
255
255
255
255
255
0
255
0
0
0
0
0
0
255
0
0
0
0
0
0
0
255
0
0
0
0
0
255
0
0
0
255
0
255
0
255
0
255
0
0
0
0
0
255
0
255
0
0
0
0
0
0
0
0
0
0
0
0
0
0
0
255
0
255
0
255
0
255
0
255
0
0
0
0
0
0
0
255
0
0
0
0
0
255
0
255
0
255
0
0
0
0
0
0
0
255
0
0
0
255
0
0
0
0
0
0
0
255
0
0
255
255
255
255
255
0
255
255
255
0
255
255
255
255
255
255
255
0
255
0
255
0
255
0
255
0
255
0
255
0
255
255
255
0
255
0
255
255
255
255
255
255
255
255
255
255
255
0
255
255
255
255
255
0
255
0
255
0
255
0
255
255
255
255
255
255
255
255
255
0
255
255
255
255
255
0
255
0
255
255
255
255
255
255
255
0
255
255
255
0
255
255
255
0
255
255
255
255
255
0
0
255
0
0
0
0
0
255
0
255
0
0
0
0
0
0
0
255
0
255
0
255
0
255
0
255
0
255
0
0
0
255
0
255
0
255
0
0
0
0
0
0
0
0
0
255
0
255
0
255
0
0
0
0
0
255
0
255
0
255
0
255
0
0
0
0
0
0
0
0
0
255
0
0
0
0
0
255
0
0
0
0
0
0
0
255
0
0
0
255
0
0
0
0
0
255
0
0
0
0
0
0
255
0
255
255
255
0
255
0
255
255
255
255
255
0
255
255
255
0
255
0
255
255
255
255
255
0
255
255
255
255
255
0
255
255
255
0
255
255
255
255
255
255
255
0
255
0
255
0
255
0
255
255
255
255
255
0
255
255
255
0
255
0
255
255
255
255
255
0
255
0
255
0
255
255
255
255
255
0
255
255
255
255
255
0
255
0
255
0
255
255
255
255
255
0
255
0
255
255
255
0
0
255
0
255
0
255
0
255
0
0
0
0
0
255
0
255
0
0
0
255
0
0
0
0
0
0
0
0
0
0
0
0
0
0
0
0
0
255
0
0
0
0
0
255
0
0
0
255
0
255
0
255
0
0
0
0
0
0
0
0
0
255
0
255
0
0
0
255
0
255
0
255
0
255
0
0
0
255
0
255
0
0
0
255
0
255
0
255
0
0
0
0
0
255
0
255
0
255
0
255
0
0
255
255
255
0
255
0
255
255
255
0
255
255
255
0
255
255
255
255
255
255
255
255
255
255
255
255
255
255
255
255
255
255
255
255
255
255
255
0
255
255
255
255
255
0
255
255
255
0
255
0
255
0
255
255
255
255
255
255
255
255
255
255
255
0
255
255
255
255
255
0
255
0
255
0
255
255
255
0
255
0
255
255
255
0
255
255
255
0
255
255
255
255
255
0
255
0
255
0
255
0
0
255
0
0
0
255
0
0
0
255
0
255
0
0
0
255
0
0
0
0
0
0
0
0
0
0
0
0
0
0
0
0
0
0
0
0
0
0
0
0
0
0
0
255
0
255
0
0
0
255
0
255
0
255
0
0
0
0
0
0
0
0
0
0
0
0
0
0
0
0
0
255
0
0
0
255
0
0
0
255
0
255
0
255
0
0
0
255
0
255
0
0
0
0
0
255
0
255
0
0
0
0
255
0
255
255
255
255
255
0
255
0
255
0
255
255
255
255
255
255
255
0
255
255
255
0
255
255
255
255
255
255
255
255
255
255
255
255
255
255
255
255
255
0
255
255
255
0
255
255
255
0
255
0
255
0
255
255
255
255
255
255
255
255
255
255
255
255
255
255
255
255
255
0
255
255
255
0
255
0
255
0
255
0
255
0
255
255
255
0
255
0
255
255
255
0
255
0
255
255
255
0
0
255
0
255
0
0
0
0
0
255
0
255
0
0
0
0
0
0
0
0
0
255
0
255
0
255
0
0
0
0
0
0
0
0
0
0
0
0
0
0
0
255
0
0
0
255
0
255
0
0
0
0
0
255
0
255
0
0
0
0
0
0
0
0
0
0
0
0
0
0
0
0
0
255
0
0
0
255
0
255
0
255
0
255
0
255
0
0
0
255
0
255
0
255
0
255
0
0
0
255
0
0
255
0
255
255
255
255
255
255
255
0
255
255
255
255
255
255
255
255
255
255
255
0
255
255
255
0
255
255
255
255
255
255
255
0
255
0
255
255
255
255
255
0
255
255
255
0
255
255
255
255
255
255
255
0
255
255
255
0
255
255
255
0
255
255
255
255
255
255
255
0
255
255
255
0
255
255
255
0
255
0
255
0
255
0
255
255
255
0
255
255
255
0
255
255
255
0
255
255
255
0
0
255
0
0
0
0
0
0
0
0
0
0
0
0
0
0
0
0
0
0
0
0
0
0
0
0
0
255
0
0
0
0
0
255
0
255
0
255
0
0
0
0
0
0
0
0
0
0
0
0
0
0
0
0
0
0
0
255
0
255
0
0
0
255
0
0
0
255
0
255
0
255
0
0
0
0
0
255
0
255
0
255
0
255
0
0
0
255
0
0
0
0
0
0
0
0
0
255
0
0
0
0
255
0
255
255
255
255
255
0
255
255
255
255
255
0
255
255
255
255
255
255
255
0
255
255
255
0
255
0
255
255
255
0
255
255
255
0
255
0
255
255
255
255
255
255
255
255
255
255
255
255
255
255
255
255
255
0
255
0
255
255
255
255
255
255
255
0
255
0
255
0
255
255
255
255
255
0
255
0
255
0
255
0
255
255
255
0
255
0
255
255
255
255
255
255
255
0
255
255
255
0
0
255
0
0
0
255
0
255
0
255
0
0
0
255
0
0
0
0
0
255
0
255
0
255
0
255
0
255
0
255
0
0
0
0
0
255
0
255
0
255
0
0
0
0
0
0
0
0
0
0
0
0
0
0
0
255
0
255
0
0
0
0
0
0
0
0
0
255
0
255
0
0
0
0
0
255
0
255
0
255
0
255
0
0
0
0
0
255
0
0
0
255
0
0
0
255
0
0
0
255
0
0
255
255
255
255
255
0
255
255
255
0
255
255
255
255
255
255
255
255
255
0
255
255
255
0
255
255
255
0
255
255
255
255
255
255
255
0
255
255
255
255
255
255
255
255
255
255
255
255
255
255
255
255
255
0
255
255
255
255
255
255
255
255
255
255
255
255
255
0
255
255
255
255
255
255
255
0
255
255
255
0
255
255
255
255
255
255
255
255
255
255
255
0
255
255
255
255
255
255
255
0
0
0
0
0
0
0
0
0
0
0
0
0
0
0
0
0
0
0
0
0
0
0
0
0
0
0
0
0
0
0
0
0
0
0
0
0
0
0
0
0
0
0
0
0
0
0
0
0
0
0
0
0
0
0
0
0
0
0
0
0
0
0
0
0
0
0
0
0
0
0
0
0
0
0
0
0
0
0
0
0
0
0
0
0
0
0
0
0
0
0
0
0
0
0
0
0
0
0
0
0
0
