P2
# 13 0 criado por mim mesmo...
201 41
255
0
0
0
0
0
0
0
0
0
0
0
0
0
255
0
0
0
0
0
0
0
0
0
0
0
0
0
0
0
0
0
0
0
0
0
0
0
0
0
0
0
0
0
0
0
0
0
0
0
0
0
0
0
0
0
0
0
0
0
0
0
0
0
0
0
0
0
0
0
0
0
0
0
0
0
0
0
0
0
0
0
0
0
0
0
0
0
0
0
0
0
0
0
0
0
0
0
0
0
0
0
0
0
0
0
0
0
0
0
0
0
0
0
0
0
0
0
0
0
0
0
0
0
0
0
0
0
0
0
0
0
0
0
0
0
0
0
0
0
0
0
0
0
0
0
0
0
0
0
0
0
0
0
0
0
0
0
0
0
0
0
0
0
0
0
0
0
0
0
0
0
0
0
0
0
0
0
0
0
0
0
0
0
0
0
0
0
0
0
0
0
0
0
0
0
0
0
0
0
0
0
0
255
255
255
0
255
255
255
255
255
255
255
0
255
255
255
255
255
255
255
255
255
0
255
255
255
255
255
255
255
255
255
255
255
0
255
255
255
255
255
255
255
255
255
255
255
255
255
255
255
0
255
255
255
255
255
255
255
255
255
0
255
255
255
255
255
255
255
255
255
0
255
255
255
255
255
255
255
255
255
255
255
255
255
255
255
255
255
255
255
255
255
255
255
255
255
0
255
255
255
255
255
255
255
255
255
0
255
255
255
255
255
255
255
255
255
0
255
255
255
255
255
255
255
255
255
255
255
255
255
0
255
255
255
255
255
255
255
255
255
255
255
255
255
255
255
255
255
0
255
255
255
255
255
255
255
255
255
0
255
0
255
255
255
255
255
255
255
255
255
255
255
0
255
255
255
255
255
255
255
0
255
0
255
255
255
255
255
255
255
255
255
0
255
255
255
255
255
255
255
0
0
255
0
255
0
255
0
0
0
0
0
255
0
255
0
0
0
0
0
255
0
255
0
255
0
0
0
0
0
0
0
255
0
255
0
255
0
0
0
255
0
0
0
0
0
0
0
0
0
255
0
255
0
0
0
0
0
0
0
0
0
255
0
255
0
0
0
0
0
255
0
255
0
0
0
0
0
0
0
0
0
0
0
0
0
0
0
0
0
0
0
0
0
255
0
0
0
255
0
255
0
0
0
0
0
0
0
255
0
0
0
0
0
0
0
255
0
255
0
0
0
0
0
0
0
255
0
0
0
255
0
255
0
0
0
0
0
0
0
0
0
0
0
255
0
0
0
255
0
255
0
0
0
0
0
255
0
255
0
255
0
255
0
0
0
255
0
0
0
0
0
0
0
255
0
255
0
0
0
255
0
255
0
255
0
0
0
255
0
0
0
0
0
255
0
0
0
0
0
255
0
0
255
0
255
255
255
0
255
255
255
0
255
0
255
255
255
255
255
0
255
0
255
0
255
255
255
0
255
255
255
0
255
0
255
0
255
255
255
0
255
0
255
255
255
255
255
255
255
0
255
0
255
255
255
255
255
255
255
255
255
255
255
0
255
0
255
255
255
0
255
0
255
255
255
255
255
255
255
255
255
255
255
255
255
0
255
255
255
255
255
255
255
0
255
255
255
255
255
0
255
255
255
255
255
255
255
255
255
0
255
255
255
0
255
0
255
255
255
255
255
255
255
255
255
0
255
0
255
0
255
0
255
0
255
255
255
255
255
255
255
0
255
0
255
0
255
0
255
0
255
255
255
0
255
255
255
0
255
255
255
0
255
0
255
0
255
255
255
255
255
255
255
255
255
0
255
0
255
0
255
0
255
0
255
0
255
0
255
255
255
255
255
255
255
255
255
255
255
0
255
0
0
255
0
0
0
0
0
255
0
255
0
255
0
0
0
0
0
0
0
255
0
255
0
0
0
255
0
255
0
255
0
255
0
255
0
0
0
0
0
255
0
255
0
0
0
0
0
0
0
255
0
255
0
0
0
0
0
0
0
0
0
0
0
255
0
0
0
255
0
255
0
0
0
0
0
0
0
0
0
0
0
0
0
255
0
255
0
0
0
255
0
255
0
0
0
0
0
0
0
0
0
0
0
0
0
0
0
0
0
255
0
255
0
255
0
0
0
0
0
0
0
0
0
0
0
255
0
255
0
255
0
255
0
255
0
255
0
0
0
255
0
255
0
255
0
255
0
255
0
0
0
0
0
255
0
0
0
0
0
255
0
255
0
255
0
0
0
0
0
0
0
0
0
0
0
255
0
255
0
255
0
255
0
255
0
255
0
0
0
0
0
0
0
0
0
0
0
0
0
255
0
0
255
0
255
255
255
0
255
0
255
0
255
0
255
255
255
255
255
255
255
0
255
0
255
0
255
0
255
0
255
0
255
0
255
255
255
255
255
255
255
0
255
255
255
255
255
255
255
255
255
0
255
255
255
255
255
255
255
0
255
255
255
0
255
0
255
255
255
0
255
0
255
255
255
255
255
255
255
0
255
255
255
0
255
0
255
0
255
0
255
0
255
0
255
255
255
255
255
0
255
255
255
255
255
255
255
255
255
0
255
0
255
255
255
0
255
255
255
255
255
255
255
255
255
255
255
0
255
0
255
0
255
0
255
0
255
0
255
255
255
0
255
0
255
0
255
255
255
255
255
255
255
255
255
0
255
255
255
255
255
0
255
0
255
255
255
0
255
0
255
255
255
255
255
255
255
0
255
255
255
255
255
0
255
0
255
255
255
0
255
255
255
255
255
255
255
255
255
0
255
0
0
255
0
255
0
255
0
255
0
255
0
255
0
255
0
0
0
0
0
0
0
255
0
255
0
255
0
255
0
255
0
255
0
0
0
0
0
0
0
0
0
255
0
0
0
0
0
0
0
0
0
0
0
0
0
0
0
255
0
255
0
255
0
255
0
255
0
255
0
255
0
255
0
0
0
0
0
255
0
0
0
255
0
255
0
255
0
255
0
255
0
255
0
255
0
0
0
255
0
255
0
0
0
255
0
0
0
255
0
255
0
0
0
0
0
255
0
0
0
0
0
0
0
0
0
0
0
255
0
255
0
255
0
0
0
255
0
255
0
0
0
255
0
255
0
0
0
0
0
0
0
0
0
0
0
0
0
0
0
0
0
255
0
255
0
255
0
255
0
255
0
0
0
0
0
0
0
0
0
0
0
0
0
255
0
255
0
255
0
255
0
0
0
0
0
0
0
255
0
255
0
0
255
0
255
0
255
0
255
0
255
0
255
0
255
0
255
255
255
255
255
255
255
255
255
0
255
0
255
0
255
0
255
0
255
255
255
255
255
0
255
0
255
0
255
255
255
255
255
255
255
255
255
255
255
255
255
0
255
0
255
0
255
0
255
0
255
0
255
0
255
0
255
0
255
0
255
255
255
255
255
255
255
0
255
0
255
0
255
0
255
0
255
0
255
0
255
0
255
0
255
0
255
0
255
0
255
255
255
0
255
255
255
255
255
0
255
0
255
255
255
0
255
255
255
255
255
255
255
0
255
0
255
0
255
255
255
0
255
255
255
255
255
0
255
255
255
255
255
255
255
255
255
255
255
0
255
255
255
255
255
255
255
0
255
0
255
0
255
0
255
255
255
255
255
255
255
255
255
255
255
255
255
0
255
0
255
0
255
0
255
0
255
255
255
255
255
0
255
0
255
0
0
255
0
255
0
255
0
255
0
0
0
255
0
255
0
0
0
0
0
0
0
0
0
0
0
255
0
0
0
255
0
255
0
255
0
0
0
255
0
255
0
255
0
255
0
0
0
0
0
0
0
0
0
0
0
0
0
255
0
0
0
255
0
255
0
255
0
255
0
255
0
255
0
255
0
255
0
0
0
0
0
0
0
255
0
255
0
255
0
255
0
255
0
255
0
255
0
255
0
255
0
255
0
255
0
255
0
0
0
0
0
255
0
255
0
255
0
255
0
0
0
255
0
255
0
0
0
0
0
255
0
255
0
255
0
0
0
0
0
0
0
0
0
0
0
0
0
0
0
0
0
0
0
255
0
255
0
0
0
0
0
0
0
255
0
255
0
255
0
0
0
0
0
0
0
0
0
0
0
0
0
255
0
255
0
255
0
0
0
255
0
255
0
255
0
0
0
255
0
255
0
0
255
0
255
0
255
0
255
255
255
0
255
0
255
0
255
255
255
0
255
255
255
255
255
255
255
255
255
255
255
0
255
0
255
0
255
0
255
0
255
0
255
0
255
255
255
255
255
255
255
255
255
255
255
255
255
0
255
0
255
255
255
0
255
0
255
0
255
0
255
0
255
0
255
0
255
0
255
255
255
255
255
255
255
0
255
255
255
0
255
0
255
255
255
0
255
255
255
0
255
255
255
0
255
0
255
0
255
255
255
0
255
0
255
0
255
0
255
255
255
255
255
0
255
255
255
255
255
255
255
0
255
0
255
0
255
255
255
255
255
255
255
255
255
255
255
255
255
255
255
0
255
255
255
0
255
255
255
0
255
255
255
255
255
0
255
0
255
255
255
255
255
0
255
255
255
255
255
255
255
0
255
0
255
0
255
0
255
255
255
0
255
0
255
255
255
255
255
0
255
0
0
255
0
255
0
255
0
0
0
255
0
255
0
255
0
255
0
255
0
255
0
0
0
0
0
0
0
0
0
0
0
255
0
255
0
255
0
255
0
255
0
255
0
255
0
0
0
0
0
0
0
0
0
0
0
255
0
255
0
255
0
255
0
255
0
255
0
0
0
255
0
255
0
255
0
255
0
255
0
0
0
0
0
0
0
0
0
255
0
255
0
0
0
0
0
0
0
0
0
255
0
0
0
255
0
255
0
255
0
255
0
0
0
255
0
255
0
255
0
0
0
0
0
0
0
0
0
0
0
0
0
255
0
255
0
255
0
0
0
0
0
0
0
0
0
255
0
255
0
0
0
255
0
255
0
0
0
255
0
255
0
0
0
255
0
255
0
255
0
0
0
255
0
255
0
0
0
0
0
0
0
255
0
255
0
255
0
255
0
0
0
255
0
0
0
0
0
0
0
255
0
0
255
0
255
0
255
255
255
255
255
0
255
0
255
0
255
0
255
0
255
255
255
0
255
0
255
255
255
255
255
255
255
0
255
0
255
255
255
255
255
0
255
0
255
0
255
255
255
255
255
255
255
255
255
0
255
0
255
0
255
0
255
0
255
0
255
255
255
255
255
255
255
0
255
255
255
0
255
255
255
0
255
255
255
0
255
255
255
0
255
255
255
255
255
255
255
255
255
255
255
0
255
255
255
0
255
0
255
0
255
0
255
255
255
0
255
0
255
0
255
255
255
255
255
255
255
0
255
255
255
0
255
0
255
0
255
0
255
255
255
255
255
255
255
255
255
0
255
0
255
255
255
0
255
0
255
0
255
0
255
0
255
255
255
0
255
0
255
0
255
0
255
0
255
255
255
255
255
0
255
255
255
0
255
0
255
0
255
0
255
0
255
0
255
255
255
255
255
255
255
0
0
255
0
255
0
0
0
0
0
0
0
255
0
255
0
255
0
255
0
0
0
255
0
255
0
255
0
0
0
0
0
0
0
255
0
0
0
0
0
0
0
255
0
255
0
255
0
255
0
0
0
0
0
0
0
255
0
255
0
255
0
255
0
255
0
0
0
0
0
0
0
0
0
0
0
0
0
0
0
255
0
255
0
0
0
255
0
0
0
0
0
0
0
0
0
0
0
0
0
0
0
255
0
0
0
255
0
255
0
255
0
255
0
0
0
255
0
255
0
255
0
0
0
0
0
255
0
255
0
255
0
255
0
255
0
255
0
255
0
0
0
0
0
0
0
0
0
255
0
255
0
0
0
255
0
255
0
255
0
255
0
255
0
0
0
255
0
255
0
255
0
255
0
0
0
0
0
255
0
255
0
255
0
255
0
255
0
255
0
255
0
255
0
255
0
0
0
0
0
255
0
0
255
0
255
255
255
255
255
255
255
255
255
0
255
255
255
0
255
0
255
255
255
0
255
0
255
0
255
255
255
255
255
0
255
255
255
255
255
255
255
255
255
0
255
0
255
0
255
0
255
255
255
255
255
255
255
0
255
0
255
0
255
0
255
255
255
255
255
255
255
255
255
255
255
255
255
255
255
0
255
0
255
255
255
255
255
0
255
255
255
0
255
255
255
255
255
255
255
255
255
0
255
0
255
255
255
255
255
0
255
0
255
0
255
255
255
0
255
255
255
0
255
255
255
0
255
0
255
0
255
0
255
0
255
255
255
0
255
0
255
255
255
255
255
255
255
255
255
0
255
0
255
0
255
0
255
0
255
0
255
0
255
0
255
0
255
0
255
0
255
255
255
255
255
255
255
0
255
0
255
0
255
0
255
255
255
0
255
0
255
255
255
255
255
0
255
255
255
0
255
0
0
255
0
255
0
0
0
0
0
0
0
0
0
0
0
0
0
255
0
255
0
0
0
255
0
255
0
0
0
255
0
255
0
255
0
0
0
0
0
0
0
0
0
255
0
255
0
0
0
255
0
0
0
0
0
0
0
255
0
255
0
0
0
0
0
0
0
0
0
0
0
0
0
0
0
0
0
255
0
255
0
0
0
0
0
255
0
0
0
255
0
255
0
0
0
0
0
0
0
255
0
255
0
0
0
0
0
0
0
255
0
255
0
255
0
0
0
0
0
0
0
0
0
255
0
255
0
255
0
255
0
255
0
255
0
0
0
255
0
255
0
0
0
0
0
0
0
0
0
255
0
255
0
255
0
255
0
255
0
255
0
255
0
255
0
255
0
255
0
0
0
0
0
0
0
255
0
255
0
255
0
0
0
0
0
255
0
255
0
0
0
0
0
0
0
255
0
255
0
255
0
0
255
0
255
255
255
255
255
255
255
0
255
255
255
255
255
255
255
0
255
255
255
255
255
0
255
0
255
255
255
0
255
0
255
0
255
255
255
255
255
255
255
0
255
0
255
255
255
0
255
0
255
255
255
255
255
0
255
0
255
255
255
255
255
255
255
255
255
255
255
0
255
255
255
0
255
255
255
0
255
255
255
255
255
0
255
0
255
255
255
0
255
0
255
255
255
255
255
0
255
0
255
255
255
255
255
0
255
255
255
255
255
0
255
0
255
0
255
255
255
255
255
0
255
0
255
255
255
0
255
0
255
0
255
0
255
255
255
0
255
255
255
255
255
255
255
0
255
255
255
0
255
0
255
0
255
0
255
0
255
0
255
0
255
0
255
0
255
255
255
255
255
0
255
0
255
0
255
0
255
255
255
255
255
255
255
0
255
255
255
255
255
0
255
0
255
0
255
255
255
0
0
255
0
0
0
0
0
0
0
255
0
255
0
0
0
0
0
0
0
255
0
0
0
0
0
255
0
255
0
0
0
0
0
255
0
0
0
0
0
255
0
0
0
255
0
0
0
255
0
255
0
255
0
0
0
255
0
255
0
255
0
0
0
255
0
0
0
0
0
255
0
255
0
255
0
255
0
255
0
0
0
0
0
255
0
255
0
255
0
255
0
255
0
255
0
0
0
255
0
255
0
0
0
0
0
255
0
0
0
0
0
0
0
255
0
255
0
255
0
255
0
255
0
255
0
0
0
0
0
255
0
255
0
0
0
255
0
0
0
255
0
0
0
0
0
0
0
255
0
0
0
255
0
255
0
255
0
255
0
255
0
255
0
255
0
255
0
255
0
0
0
255
0
255
0
255
0
255
0
0
0
0
0
0
0
0
0
0
0
0
0
255
0
255
0
255
0
0
0
0
0
0
255
255
255
255
255
0
255
0
255
0
255
0
255
255
255
255
255
255
255
0
255
255
255
255
255
0
255
255
255
255
255
0
255
0
255
255
255
0
255
255
255
0
255
255
255
255
255
0
255
0
255
0
255
255
255
0
255
0
255
255
255
0
255
0
255
255
255
255
255
0
255
0
255
0
255
0
255
0
255
255
255
0
255
0
255
255
255
0
255
0
255
0
255
0
255
255
255
0
255
255
255
255
255
255
255
0
255
255
255
255
255
255
255
0
255
0
255
0
255
0
255
255
255
255
255
255
255
0
255
0
255
0
255
255
255
0
255
255
255
0
255
255
255
255
255
0
255
0
255
255
255
0
255
0
255
0
255
0
255
0
255
0
255
0
255
0
255
0
255
255
255
0
255
0
255
255
255
255
255
255
255
0
255
255
255
255
255
255
255
255
255
0
255
255
255
255
255
255
255
0
0
255
0
0
0
255
0
255
0
255
0
255
0
255
0
0
0
0
0
0
0
255
0
0
0
255
0
0
0
0
0
255
0
255
0
255
0
255
0
0
0
255
0
255
0
0
0
0
0
255
0
255
0
255
0
0
0
255
0
0
0
255
0
255
0
255
0
0
0
0
0
0
0
255
0
255
0
255
0
0
0
255
0
255
0
0
0
0
0
255
0
255
0
255
0
0
0
0
0
0
0
0
0
0
0
255
0
255
0
0
0
0
0
0
0
255
0
255
0
255
0
0
0
0
0
0
0
0
0
255
0
255
0
255
0
0
0
255
0
0
0
255
0
0
0
255
0
255
0
255
0
255
0
255
0
255
0
255
0
255
0
255
0
255
0
255
0
0
0
255
0
0
0
255
0
255
0
0
0
0
0
0
0
255
0
0
0
0
0
0
0
0
0
0
0
0
0
0
0
0
0
0
255
0
255
0
255
0
255
0
255
0
255
0
255
0
255
255
255
255
255
0
255
0
255
255
255
0
255
255
255
0
255
255
255
0
255
0
255
0
255
255
255
0
255
0
255
255
255
0
255
255
255
0
255
255
255
255
255
255
255
0
255
0
255
0
255
0
255
255
255
255
255
255
255
0
255
0
255
255
255
255
255
0
255
0
255
255
255
0
255
0
255
0
255
255
255
255
255
255
255
255
255
255
255
0
255
0
255
0
255
255
255
255
255
255
255
255
255
0
255
255
255
255
255
255
255
255
255
255
255
0
255
0
255
0
255
255
255
0
255
255
255
0
255
0
255
0
255
0
255
0
255
0
255
0
255
0
255
0
255
0
255
0
255
0
255
0
255
255
255
0
255
255
255
255
255
0
255
255
255
255
255
255
255
0
255
255
255
255
255
255
255
255
255
255
255
255
255
255
255
0
0
255
0
255
0
255
0
255
0
255
0
255
0
255
0
255
0
0
0
0
0
255
0
255
0
0
0
255
0
255
0
255
0
0
0
255
0
255
0
255
0
0
0
255
0
255
0
255
0
255
0
0
0
0
0
0
0
0
0
255
0
0
0
255
0
255
0
0
0
255
0
0
0
255
0
255
0
0
0
0
0
255
0
255
0
255
0
0
0
255
0
255
0
255
0
0
0
0
0
0
0
0
0
255
0
255
0
255
0
255
0
0
0
0
0
0
0
0
0
0
0
0
0
0
0
0
0
0
0
0
0
255
0
255
0
0
0
0
0
255
0
0
0
255
0
255
0
255
0
255
0
255
0
255
0
255
0
255
0
255
0
255
0
255
0
255
0
255
0
0
0
0
0
0
0
0
0
255
0
0
0
0
0
255
0
255
0
0
0
0
0
0
0
0
0
0
0
0
0
255
0
0
255
0
255
0
255
0
255
0
255
0
255
0
255
0
255
0
255
255
255
255
255
0
255
0
255
255
255
0
255
0
255
0
255
255
255
0
255
0
255
255
255
255
255
0
255
0
255
0
255
0
255
255
255
255
255
255
255
0
255
255
255
255
255
0
255
255
255
255
255
0
255
255
255
0
255
0
255
255
255
255
255
0
255
0
255
255
255
255
255
0
255
0
255
0
255
255
255
255
255
0
255
0
255
255
255
0
255
0
255
0
255
255
255
255
255
0
255
255
255
255
255
255
255
255
255
255
255
255
255
255
255
0
255
255
255
255
255
255
255
255
255
255
255
0
255
0
255
0
255
0
255
255
255
255
255
0
255
0
255
0
255
0
255
255
255
0
255
0
255
255
255
255
255
255
255
0
255
0
255
255
255
255
255
0
255
0
255
255
255
0
255
255
255
255
255
255
255
0
255
0
0
255
0
255
0
255
0
255
0
255
0
255
0
255
0
255
0
255
0
0
0
0
0
0
0
255
0
0
0
255
0
255
0
255
0
255
0
255
0
0
0
0
0
0
0
255
0
255
0
0
0
255
0
0
0
0
0
255
0
0
0
0
0
0
0
0
0
0
0
0
0
0
0
0
0
255
0
0
0
0
0
0
0
255
0
0
0
0
0
0
0
255
0
255
0
0
0
255
0
255
0
255
0
0
0
0
0
255
0
255
0
255
0
0
0
255
0
255
0
0
0
0
0
0
0
0
0
0
0
0
0
0
0
0
0
0
0
0
0
0
0
0
0
0
0
255
0
255
0
0
0
0
0
0
0
0
0
255
0
0
0
255
0
255
0
0
0
255
0
255
0
0
0
0
0
255
0
255
0
0
0
0
0
0
0
255
0
255
0
0
0
255
0
255
0
0
0
0
0
255
0
0
255
0
255
0
255
0
255
0
255
0
255
0
255
0
255
0
255
255
255
255
255
255
255
255
255
255
255
0
255
0
255
0
255
0
255
0
255
255
255
255
255
255
255
255
255
0
255
255
255
255
255
0
255
255
255
255
255
255
255
255
255
255
255
255
255
255
255
255
255
255
255
255
255
255
255
0
255
255
255
255
255
255
255
255
255
255
255
255
255
0
255
0
255
255
255
255
255
0
255
255
255
255
255
255
255
0
255
0
255
0
255
255
255
0
255
0
255
0
255
255
255
255
255
255
255
255
255
255
255
255
255
255
255
255
255
255
255
255
255
255
255
255
255
0
255
0
255
255
255
255
255
255
255
255
255
255
255
0
255
255
255
0
255
0
255
255
255
255
255
255
255
0
255
255
255
0
255
255
255
255
255
255
255
255
255
0
255
255
255
255
255
0
255
0
255
255
255
255
255
0
0
255
0
255
0
255
0
255
0
255
0
255
0
255
0
255
0
0
0
0
0
0
0
0
0
0
0
0
0
255
0
255
0
255
0
255
0
255
0
0
0
0
0
0
0
0
0
0
0
0
0
0
0
0
0
0
0
0
0
0
0
0
0
0
0
0
0
0
0
0
0
0
0
0
0
0
0
255
0
0
0
0
0
0
0
0
0
0
0
255
0
255
0
0
0
0
0
0
0
0
0
0
0
0
0
0
0
255
0
255
0
0
0
0
0
255
0
255
0
255
0
0
0
0
0
0
0
0
0
0
0
0
0
0
0
0
0
0
0
0
0
0
0
255
0
255
0
0
0
0
0
0
0
0
0
0
0
0
0
255
0
0
0
255
0
0
0
0
0
0
0
0
0
255
0
255
0
0
0
0
0
0
0
0
0
0
0
255
0
0
0
0
0
255
0
255
0
0
0
0
0
0
255
255
255
0
255
0
255
0
255
255
255
0
255
255
255
255
255
0
255
255
255
255
255
255
255
0
255
255
255
0
255
0
255
0
255
0
255
0
255
255
255
255
255
255
255
255
255
255
255
255
255
255
255
255
255
255
255
255
255
255
255
255
255
255
255
255
255
255
255
255
255
255
255
255
255
255
255
0
255
0
255
255
255
255
255
0
255
255
255
255
255
0
255
255
255
255
255
255
255
255
255
255
255
255
255
255
255
0
255
255
255
255
255
255
255
0
255
0
255
255
255
255
255
255
255
0
255
255
255
255
255
255
255
255
255
255
255
255
255
255
255
0
255
0
255
255
255
255
255
0
255
255
255
0
255
255
255
255
255
0
255
255
255
255
255
255
255
255
255
255
255
255
255
0
255
0
255
255
255
255
255
0
255
255
255
255
255
255
255
255
255
0
255
0
255
255
255
255
255
0
0
0
0
0
0
255
0
255
0
0
0
255
0
0
0
0
0
255
0
255
0
0
0
255
0
0
0
255
0
0
0
255
0
255
0
255
0
255
0
255
0
0
0
0
0
0
0
0
0
0
0
0
0
0
0
0
0
0
0
0
0
0
0
0
0
0
0
0
0
0
0
0
0
0
0
0
0
0
0
255
0
255
0
0
0
255
0
0
0
0
0
0
0
255
0
0
0
0
0
0
0
255
0
0
0
0
0
0
0
0
0
0
0
0
0
0
0
255
0
255
0
0
0
0
0
255
0
255
0
0
0
0
0
0
0
0
0
0
0
0
0
0
0
255
0
255
0
0
0
255
0
255
0
0
0
255
0
255
0
0
0
0
0
0
0
0
0
0
0
0
0
0
0
0
0
255
0
255
0
0
0
255
0
255
0
0
0
0
0
0
0
0
0
255
0
0
0
0
0
255
0
0
255
255
255
255
255
0
255
255
255
255
255
255
255
255
255
0
255
0
255
0
255
255
255
0
255
255
255
0
255
0
255
0
255
0
255
0
255
0
255
0
255
255
255
255
255
255
255
0
255
255
255
255
255
0
255
255
255
255
255
255
255
0
255
255
255
255
255
255
255
0
255
255
255
255
255
255
255
255
255
0
255
0
255
0
255
0
255
255
255
255
255
255
255
0
255
255
255
0
255
255
255
0
255
255
255
255
255
255
255
255
255
255
255
255
255
255
255
0
255
255
255
255
255
0
255
0
255
255
255
255
255
255
255
255
255
255
255
255
255
255
255
255
255
0
255
0
255
255
255
0
255
255
255
255
255
0
255
0
255
255
255
255
255
0
255
255
255
255
255
255
255
0
255
255
255
0
255
0
255
255
255
0
255
0
255
0
255
255
255
255
255
255
255
255
255
0
255
0
255
0
0
255
0
0
0
0
0
255
0
0
0
0
0
0
0
0
0
255
0
255
0
255
0
0
0
255
0
0
0
255
0
255
0
0
0
255
0
255
0
255
0
255
0
255
0
0
0
255
0
255
0
255
0
255
0
255
0
0
0
0
0
0
0
255
0
255
0
0
0
255
0
255
0
0
0
0
0
255
0
0
0
255
0
255
0
255
0
255
0
0
0
0
0
0
0
255
0
255
0
255
0
0
0
255
0
0
0
0
0
0
0
0
0
0
0
0
0
0
0
0
0
0
0
0
0
255
0
0
0
0
0
0
0
0
0
0
0
255
0
0
0
0
0
0
0
255
0
255
0
0
0
0
0
0
0
0
0
255
0
255
0
0
0
255
0
255
0
0
0
0
0
0
0
255
0
0
0
255
0
255
0
0
0
255
0
255
0
255
0
0
0
0
0
0
0
255
0
255
0
255
0
0
255
0
255
255
255
0
255
255
255
0
255
255
255
255
255
255
255
0
255
0
255
0
255
255
255
0
255
255
255
255
255
255
255
255
255
0
255
0
255
0
255
0
255
0
255
0
255
0
255
0
255
0
255
0
255
255
255
255
255
255
255
255
255
0
255
0
255
0
255
0
255
0
255
255
255
0
255
0
255
255
255
0
255
0
255
255
255
0
255
255
255
255
255
0
255
0
255
0
255
0
255
0
255
0
255
255
255
255
255
255
255
255
255
255
255
255
255
255
255
255
255
255
255
0
255
255
255
255
255
255
255
255
255
255
255
0
255
255
255
255
255
0
255
255
255
0
255
255
255
255
255
255
255
255
255
255
255
0
255
0
255
0
255
0
255
255
255
255
255
255
255
0
255
0
255
255
255
0
255
0
255
255
255
255
255
0
255
0
255
255
255
255
255
0
255
0
255
0
255
255
0
255
0
0
0
255
0
0
0
255
0
255
0
0
0
0
0
0
0
255
0
0
0
255
0
0
0
0
0
0
0
0
0
0
0
0
0
0
0
255
0
0
0
255
0
255
0
255
0
255
0
255
0
255
0
255
0
0
0
0
0
0
0
0
0
255
0
255
0
255
0
255
0
255
0
255
0
255
0
255
0
0
0
255
0
0
0
0
0
255
0
255
0
255
0
0
0
255
0
255
0
255
0
255
0
255
0
0
0
255
0
0
0
0
0
0
0
0
0
0
0
0
0
255
0
0
0
0
0
0
0
0
0
0
0
255
0
0
0
0
0
255
0
255
0
255
0
0
0
0
0
0
0
0
0
0
0
0
0
255
0
255
0
255
0
255
0
0
0
0
0
255
0
255
0
255
0
0
0
255
0
0
0
0
0
0
0
255
0
255
0
0
0
0
0
255
0
255
0
0
0
0
255
255
255
0
255
255
255
0
255
0
255
255
255
255
255
0
255
255
255
255
255
0
255
255
255
255
255
255
255
255
255
255
255
255
255
255
255
0
255
255
255
255
255
0
255
0
255
0
255
0
255
0
255
0
255
0
255
255
255
255
255
255
255
0
255
0
255
0
255
0
255
0
255
0
255
0
255
0
255
0
255
255
255
255
255
255
255
0
255
0
255
0
255
0
255
255
255
0
255
255
255
0
255
0
255
0
255
0
255
0
255
0
255
255
255
255
255
0
255
255
255
0
255
255
255
255
255
255
255
255
255
255
255
255
255
0
255
255
255
0
255
0
255
0
255
255
255
255
255
255
255
255
255
255
255
255
255
255
255
0
255
0
255
0
255
0
255
255
255
0
255
0
255
255
255
0
255
0
255
0
255
255
255
255
255
255
255
0
255
255
255
255
255
0
255
0
255
255
255
0
0
0
0
255
0
255
0
255
0
255
0
0
0
0
0
255
0
0
0
0
0
255
0
0
0
0
0
0
0
0
0
0
0
0
0
0
0
255
0
0
0
0
0
0
0
255
0
255
0
255
0
255
0
255
0
255
0
0
0
0
0
0
0
255
0
255
0
255
0
255
0
255
0
255
0
0
0
255
0
255
0
255
0
255
0
255
0
0
0
255
0
255
0
255
0
255
0
255
0
0
0
255
0
255
0
255
0
255
0
255
0
255
0
255
0
0
0
255
0
255
0
255
0
0
0
0
0
0
0
0
0
0
0
0
0
0
0
255
0
0
0
255
0
0
0
0
0
0
0
255
0
0
0
0
0
0
0
0
0
255
0
255
0
255
0
255
0
255
0
255
0
255
0
0
0
0
0
255
0
255
0
255
0
0
0
0
0
0
0
0
0
0
0
255
0
255
0
255
0
255
0
0
255
255
255
0
255
0
255
0
255
0
255
255
255
0
255
255
255
255
255
255
255
255
255
0
255
255
255
0
255
255
255
255
255
255
255
0
255
255
255
255
255
255
255
255
255
255
255
0
255
0
255
0
255
0
255
0
255
255
255
255
255
255
255
0
255
0
255
0
255
0
255
0
255
255
255
255
255
0
255
0
255
0
255
0
255
0
255
255
255
0
255
0
255
0
255
0
255
255
255
0
255
0
255
0
255
0
255
0
255
0
255
0
255
255
255
0
255
0
255
0
255
255
255
255
255
255
255
255
255
255
255
255
255
255
255
255
255
255
255
0
255
0
255
255
255
255
255
0
255
0
255
255
255
255
255
255
255
0
255
0
255
0
255
0
255
255
255
0
255
0
255
255
255
255
255
255
255
0
255
0
255
0
255
255
255
255
255
255
255
255
255
255
255
0
255
0
255
0
255
0
0
255
0
0
0
0
0
255
0
255
0
255
0
255
0
0
0
0
0
0
0
0
0
255
0
255
0
255
0
0
0
0
0
255
0
0
0
0
0
0
0
0
0
0
0
0
0
0
0
0
0
255
0
255
0
255
0
255
0
0
0
0
0
0
0
255
0
255
0
255
0
255
0
255
0
0
0
0
0
255
0
255
0
255
0
0
0
255
0
0
0
255
0
255
0
255
0
0
0
0
0
255
0
255
0
255
0
255
0
255
0
255
0
0
0
255
0
255
0
255
0
0
0
0
0
0
0
0
0
0
0
0
0
0
0
0
0
0
0
255
0
255
0
255
0
0
0
255
0
255
0
255
0
0
0
0
0
255
0
255
0
255
0
255
0
0
0
0
0
255
0
0
0
0
0
255
0
0
0
255
0
255
0
0
0
0
0
0
0
255
0
0
0
0
0
255
0
0
0
255
0
0
255
0
255
255
255
255
255
0
255
0
255
0
255
255
255
0
255
255
255
255
255
0
255
0
255
0
255
255
255
255
255
255
255
0
255
255
255
255
255
255
255
0
255
255
255
255
255
255
255
255
255
0
255
0
255
255
255
0
255
255
255
255
255
255
255
0
255
255
255
255
255
0
255
255
255
0
255
255
255
0
255
0
255
0
255
255
255
0
255
0
255
0
255
255
255
0
255
255
255
255
255
0
255
0
255
255
255
0
255
0
255
255
255
255
255
0
255
0
255
0
255
255
255
255
255
255
255
255
255
0
255
255
255
0
255
255
255
0
255
0
255
255
255
0
255
0
255
0
255
0
255
0
255
255
255
0
255
0
255
0
255
0
255
255
255
0
255
0
255
0
255
255
255
0
255
255
255
255
255
0
255
255
255
255
255
255
255
0
255
255
255
255
255
0
255
255
255
255
255
0
0
255
0
255
0
0
0
0
0
255
0
0
0
0
0
255
0
255
0
255
0
255
0
255
0
255
0
0
0
0
0
0
0
0
0
255
0
0
0
255
0
255
0
255
0
0
0
0
0
0
0
0
0
255
0
0
0
0
0
255
0
0
0
0
0
0
0
0
0
0
0
0
0
0
0
0
0
255
0
0
0
255
0
255
0
255
0
0
0
255
0
255
0
0
0
0
0
255
0
0
0
0
0
255
0
0
0
0
0
255
0
0
0
0
0
0
0
255
0
255
0
255
0
0
0
0
0
0
0
255
0
255
0
255
0
0
0
255
0
255
0
0
0
0
0
255
0
255
0
255
0
255
0
255
0
0
0
255
0
255
0
255
0
0
0
255
0
255
0
255
0
255
0
255
0
0
0
0
0
0
0
0
0
0
0
0
0
255
0
0
0
0
0
255
0
0
0
0
0
255
0
0
255
0
255
255
255
255
255
255
255
255
255
255
255
255
255
0
255
0
255
0
255
0
255
0
255
255
255
255
255
255
255
255
255
255
255
0
255
255
255
0
255
0
255
0
255
255
255
255
255
255
255
0
255
255
255
255
255
0
255
255
255
255
255
255
255
255
255
255
255
255
255
255
255
255
255
0
255
0
255
255
255
0
255
255
255
255
255
255
255
0
255
255
255
255
255
255
255
255
255
255
255
0
255
255
255
255
255
255
255
0
255
255
255
255
255
255
255
0
255
0
255
0
255
255
255
255
255
0
255
0
255
0
255
255
255
255
255
0
255
255
255
0
255
255
255
0
255
0
255
0
255
0
255
255
255
255
255
0
255
255
255
255
255
0
255
0
255
0
255
0
255
0
255
0
255
255
255
255
255
255
255
255
255
255
255
255
255
0
255
255
255
255
255
255
255
255
255
0
255
0
0
255
0
0
0
0
0
0
0
0
0
0
0
0
0
0
0
255
0
255
0
0
0
255
0
0
0
0
0
0
0
0
0
0
0
0
0
255
0
0
0
255
0
255
0
255
0
0
0
255
0
0
0
0
0
0
0
255
0
0
0
0
0
0
0
0
0
0
0
0
0
0
0
0
0
255
0
255
0
0
0
0
0
0
0
0
0
0
0
0
0
0
0
0
0
0
0
0
0
0
0
0
0
0
0
0
0
0
0
0
0
255
0
0
0
0
0
0
0
255
0
255
0
255
0
0
0
0
0
255
0
255
0
0
0
0
0
255
0
255
0
0
0
255
0
255
0
255
0
0
0
255
0
255
0
0
0
0
0
0
0
0
0
0
0
255
0
255
0
255
0
255
0
255
0
255
0
0
0
0
0
0
0
0
0
0
0
0
0
255
0
0
0
0
0
0
0
0
0
255
0
0
255
255
255
255
255
255
255
255
255
255
255
255
255
255
255
255
255
0
255
255
255
255
255
255
255
255
255
255
255
255
255
255
255
255
255
255
255
0
255
255
255
255
255
0
255
255
255
0
255
255
255
255
255
255
255
255
255
255
255
255
255
255
255
255
255
255
255
255
255
255
255
255
255
255
255
0
255
255
255
255
255
255
255
255
255
255
255
255
255
255
255
255
255
255
255
255
255
255
255
255
255
255
255
255
255
255
255
255
255
255
255
255
255
255
255
255
255
255
255
255
255
0
255
255
255
255
255
255
255
255
255
0
255
255
255
255
255
0
255
255
255
255
255
0
255
255
255
255
255
255
255
0
255
255
255
255
255
255
255
255
255
255
255
255
255
0
255
255
255
255
255
0
255
255
255
0
255
255
255
255
255
255
255
255
255
255
255
255
255
255
255
255
255
255
255
255
255
255
255
0
0
0
0
0
0
0
0
0
0
0
0
0
0
0
0
0
0
0
0
0
0
0
0
0
0
0
0
0
0
0
0
0
0
0
0
0
0
0
0
0
0
0
0
0
0
0
0
0
0
0
0
0
0
0
0
0
0
0
0
0
0
0
0
0
0
0
0
0
0
0
0
0
0
0
0
0
0
0
0
0
0
0
0
0
0
0
0
0
0
0
0
0
0
0
0
0
0
0
0
0
0
0
0
0
0
0
0
0
0
0
0
0
0
0
0
0
0
0
0
0
0
0
0
0
0
0
0
0
0
0
0
0
0
0
0
0
0
0
0
0
0
0
0
0
0
0
0
0
0
0
0
0
0
0
0
0
0
0
0
0
0
0
0
0
0
0
0
0
0
0
0
0
0
0
0
0
0
0
0
0
0
0
0
0
0
0
0
0
0
0
0
0
0
0
0
0
0
0
0
0
0
