P2
# 3 10 criado por mim mesmo...
11 11
255
0
0
0
0
0
0
0
0
0
0
0
0
255
255
255
255
255
255
255
255
255
0
0
255
0
0
0
255
0
0
0
255
0
0
255
255
255
0
255
255
255
0
255
0
0
0
0
0
0
0
0
255
0
255
0
0
255
255
255
255
255
255
255
0
255
0
0
255
0
0
0
0
0
0
0
255
0
0
255
255
255
0
255
255
255
255
255
0
0
255
0
255
0
255
0
0
0
0
0
0
255
0
255
0
255
255
255
255
255
255
0
0
0
255
0
0
0
0
0
0
0
